<?xml version="1.0" standalone="no"?>
<!DOCTYPE svg PUBLIC "-//W3C//DTD SVG 20010904//EN"
 "http://www.w3.org/TR/2001/REC-SVG-20010904/DTD/svg10.dtd">
<svg version="1.0" xmlns="http://www.w3.org/2000/svg"
 width="149.000000pt" height="147.000000pt" viewBox="0 0 149.000000 147.000000"
 preserveAspectRatio="xMidYMid meet">

<g transform="translate(0.000000,147.000000) scale(0.100000,-0.100000)"
fill="#000000" stroke="none">
<path d="M29 1441 l-29 -29 0 -671 0 -671 29 -32 29 -33 671 -3 c738 -3 714
-5 746 58 22 43 23 1306 0 1350 -33 63 7 60 -738 60 l-679 0 -29 -29z m888
-97 c42 -12 54 -20 50 -32 -71 -260 -331 -1169 -336 -1174 -3 -4 -32 0 -64 9
-51 15 -58 19 -53 37 51 198 333 1176 339 1176 5 0 34 -7 64 -16z m-379 -455
l-3 -51 -98 -40 c-54 -22 -96 -42 -94 -44 2 -2 46 -21 98 -42 l94 -38 3 -52
c2 -29 -1 -52 -5 -51 -4 0 -84 33 -178 72 l-170 72 0 40 0 40 170 72 c94 40
174 73 178 73 4 0 7 -23 5 -51z m590 -20 l172 -72 0 -41 0 -41 -173 -73 c-95
-39 -176 -72 -180 -72 -5 0 -7 23 -5 51 l3 51 100 40 c55 22 101 41 102 42 1
1 -45 22 -102 45 l-105 43 0 49 c0 27 3 49 8 49 4 0 85 -32 180 -71z"/>
</g>
</svg>
